<?xml version="1.0" standalone="no"?>
<!DOCTYPE svg PUBLIC "-//W3C//DTD SVG 20010904//EN"
 "http://www.w3.org/TR/2001/REC-SVG-20010904/DTD/svg10.dtd">
<svg version="1.0" xmlns="http://www.w3.org/2000/svg"
 width="594.000000pt" height="594.000000pt" viewBox="0 0 594.000000 594.000000"
 preserveAspectRatio="xMidYMid meet">
<metadata>
Created by potrace 1.11, written by Peter Selinger 2001-2013
</metadata>
<g transform="translate(0.000000,594.000000) scale(0.100000,-0.100000)"
fill="#000000" stroke="none">
<path d="M2 5158 l3 -152 1240 -1054 c682 -579 1251 -1062 1264 -1073 l23 -19
-570 -927 c-313 -511 -577 -942 -586 -960 -20 -40 -21 -115 -1 -153 8 -16 39
-47 68 -69 28 -21 237 -199 462 -395 l410 -355 1813 -1 1812 0 0 1838 -1 1837
-914 795 c-504 437 -932 804 -953 815 -37 20 -59 20 -2055 23 l-2018 2 3 -152z"/>
</g>
</svg>
